<svg id="Layer_1" data-name="Layer 1" xmlns="http://www.w3.org/2000/svg" viewBox="0 0 371.36 188.42"><defs><style>.cls-1{isolation:isolate;}.cls-2{fill:#231f20;}.cls-3{fill:#af9500;}</style></defs><title>bims-logo-dark</title><g class="cls-1"><path class="cls-2" d="M110.29,73.35a20.67,20.67,0,0,1,5.67,7,20.45,20.45,0,0,1-1,19.79,20.72,20.72,0,0,1-8.91,7.6,31.82,31.82,0,0,1-13.78,2.78H62.81V31.49H91.17a32.05,32.05,0,0,1,13.73,2.67,19.48,19.48,0,0,1,8.51,7.2,18.89,18.89,0,0,1,2.84,10.21,17.6,17.6,0,0,1-3.81,11.63,21.36,21.36,0,0,1-10,6.64A16.66,16.66,0,0,1,110.29,73.35ZM73.14,65.64H90.49q7.26,0,11.24-3.41a11.74,11.74,0,0,0,4-9.41,11.77,11.77,0,0,0-4-9.42Q97.76,40,90.27,40H73.14Zm30.29,32.78q4.3-3.63,4.31-10.09A12.83,12.83,0,0,0,103.2,78q-4.55-3.81-12.14-3.8H73.14v27.9H91.4Q99.11,102.05,103.43,98.42Z" transform="translate(0 0)"/><path class="cls-2" d="M142.68,31.49v79.07H132.35V31.49Z" transform="translate(0 0)"/><path class="cls-2" d="M240.46,32.06v78.5H230.14V52L204,110.56h-7.25L170.58,51.91v58.65H160.26V32.06h11.11l29,64.89,29-64.89Z" transform="translate(0 0)"/><path class="cls-2" d="M269,108.57a23.3,23.3,0,0,1-9.7-7.71,19.68,19.68,0,0,1-3.63-11.4h11a14.47,14.47,0,0,0,4.6,9.36q4,3.8,11.74,3.8,7.37,0,11.63-3.69a12,12,0,0,0,4.25-9.47,10.72,10.72,0,0,0-2.5-7.37,15.86,15.86,0,0,0-6.24-4.31,94.46,94.46,0,0,0-10.09-3.18,89.06,89.06,0,0,1-12.54-4.08,20.32,20.32,0,0,1-8.05-6.41q-3.34-4.36-3.35-11.74a20.36,20.36,0,0,1,3.29-11.46,21.52,21.52,0,0,1,9.25-7.72,32.61,32.61,0,0,1,13.67-2.72q11.12,0,18.2,5.56a20.51,20.51,0,0,1,8,14.75H297.18a12.25,12.25,0,0,0-4.77-8q-4.19-3.47-11.11-3.46a16.11,16.11,0,0,0-10.55,3.35A11.4,11.4,0,0,0,266.66,52a10.14,10.14,0,0,0,2.44,7,15.87,15.87,0,0,0,6,4.14q3.58,1.42,10,3.23a94.77,94.77,0,0,1,12.6,4.26,21,21,0,0,1,8.16,6.46q3.4,4.36,3.41,11.86a20.88,20.88,0,0,1-3.07,10.89,22.51,22.51,0,0,1-9.07,8.28A29.94,29.94,0,0,1,283,111.35,33.69,33.69,0,0,1,269,108.57Z" transform="translate(0 0)"/></g><path d="M34.43,45.78" transform="translate(0 0)"/><path class="cls-3" d="M231.54,18.67a1.52,1.52,0,0,0,.94,2.82c19.51-2.22,74.6-5.87,93.32,20.92,11.66,16.7,12,37.2,12.06,44.11,0,5.27.24,11.08-7,11.24l-14.94.33,21.76,20.82a1.53,1.53,0,0,0,1.93.15l31.75-22.19-14.56.32a5.76,5.76,0,0,1-5.95-5.56,5.56,5.56,0,0,1,.11-1.35c3.66-17.55,6.71-60.41-25.89-81.13C291.36-12.27,247.36,9.42,231.54,18.67Z" transform="translate(0 0)"/><path class="cls-3" d="M139.81,169.76a1.52,1.52,0,0,0-.93-2.83c-19.52,2.23-74.61,5.87-93.32-20.93-11.67-16.7-12-37.2-12.06-44.11,0-5.27-.24-11.09,7-11.24l14.94-.33L33.68,69.52a1.53,1.53,0,0,0-1.94-.15L0,91.55l14.56-.32a5.77,5.77,0,0,1,5.91,5.62,5.58,5.58,0,0,1-.11,1.29c-3.66,17.56-6.71,60.42,25.89,81.14C80,200.7,124,179,139.81,169.76Z" transform="translate(0 0)"/><g class="cls-1"><path class="cls-2" d="M92.55,140.7a7.12,7.12,0,0,1,1.7,4.71,7.31,7.31,0,0,1-1.1,3.94A7.48,7.48,0,0,1,90,152.11a11.62,11.62,0,0,1-5,1h-10V124.29h9.69q4.38,0,6.67,2a6.67,6.67,0,0,1,2.28,5.24,6.45,6.45,0,0,1-1.44,4.35,7.6,7.6,0,0,1-3.71,2.33A6.91,6.91,0,0,1,92.55,140.7ZM77.83,137h6.72a6.69,6.69,0,0,0,4.52-1.38,4.79,4.79,0,0,0,1.59-3.82,4.68,4.68,0,0,0-1.59-3.75,6.94,6.94,0,0,0-4.64-1.36h-6.6ZM89.6,149.2a5.06,5.06,0,0,0,1.76-4.08A5.13,5.13,0,0,0,89.52,141a7.39,7.39,0,0,0-4.93-1.55H77.83v11.27h6.89A7.3,7.3,0,0,0,89.6,149.2Z" transform="translate(0 0)"/><path class="cls-2" d="M113.76,124.29v28.83h-2.89V124.29Z" transform="translate(0 0)"/><path class="cls-2" d="M148.36,126a12,12,0,0,1,5.24,5,15.69,15.69,0,0,1,1.82,7.75,15.49,15.49,0,0,1-1.82,7.7,12,12,0,0,1-5.24,4.95,18.19,18.19,0,0,1-8.21,1.71h-8.53V124.29h8.53A17.93,17.93,0,0,1,148.36,126Zm1,21.55q3.16-3.15,3.16-8.81t-3.16-8.88q-3.15-3.19-9.18-3.2H134.5v24h5.65Q146.18,150.73,149.33,147.57Z" transform="translate(0 0)"/><path class="cls-2" d="M188.79,126a12.1,12.1,0,0,1,5.24,5,15.69,15.69,0,0,1,1.81,7.75,15.49,15.49,0,0,1-1.81,7.7,12,12,0,0,1-5.24,4.95,18.22,18.22,0,0,1-8.21,1.71H172V124.29h8.54A18,18,0,0,1,188.79,126Zm1,21.55q3.15-3.15,3.15-8.81t-3.15-8.88q-3.16-3.19-9.18-3.2h-5.65v24h5.65Q186.6,150.73,189.76,147.57Z" transform="translate(0 0)"/><path class="cls-2" d="M215.35,124.29v28.83h-2.89V124.29Z" transform="translate(0 0)"/><path class="cls-2" d="M255,153.12h-2.89l-16-24.25v24.25h-2.89V124.29h2.89l16,24.21V124.29H255Z" transform="translate(0 0)"/><path class="cls-2" d="M295.5,132.7a9.79,9.79,0,0,0-3.78-4.47,10.76,10.76,0,0,0-6-1.63,11.27,11.27,0,0,0-5.77,1.48,10.56,10.56,0,0,0-4,4.23,13.17,13.17,0,0,0-1.49,6.37,13.35,13.35,0,0,0,1.49,6.4,10.62,10.62,0,0,0,4,4.25,12,12,0,0,0,11.2.18,10,10,0,0,0,3.87-3.71,12.2,12.2,0,0,0,1.68-5.63H284.61v-2.35h15.18v2.1a14.73,14.73,0,0,1-2.06,6.87,13.52,13.52,0,0,1-5,4.84,13.77,13.77,0,0,1-7,1.78,14.31,14.31,0,0,1-7.26-1.88,13.46,13.46,0,0,1-5.13-5.24,16.34,16.34,0,0,1,0-15.22,13.53,13.53,0,0,1,5.13-5.24,15.18,15.18,0,0,1,15.35.44,13.11,13.11,0,0,1,5,6.43Z" transform="translate(0 0)"/></g></svg>