<?xml version="1.0" encoding="utf-8"?>
<!-- Generator: Adobe Illustrator 23.0.1, SVG Export Plug-In . SVG Version: 6.00 Build 0)  -->
<svg version="1.1" id="Layer_1" xmlns="http://www.w3.org/2000/svg" xmlns:xlink="http://www.w3.org/1999/xlink" x="0px" y="0px"
	 viewBox="0 0 747.74 258.5" style="enable-background:new 0 0 747.74 258.5;" xml:space="preserve">
<style type="text/css">
	.st0{fill:#FFFFFF;}
</style>
<g>
	<path class="st0" d="M189.04,151.88c0,34.85-27.65,55.01-80.64,55.01H4.15V5.29h98.49c50.4,0,76.32,21.02,76.32,52.42
		c0,20.16-10.37,35.71-26.78,44.35C174.64,109.26,189.04,126.54,189.04,151.88z M50.52,40.42v47.52h46.37
		c22.75,0,35.14-8.06,35.14-23.9s-12.38-23.62-35.14-23.62H50.52z M142.1,146.98c0-16.99-12.96-25.06-37.15-25.06H50.52v49.82h54.43
		C129.14,171.75,142.1,164.26,142.1,146.98z"/>
	<path class="st0" d="M224.47,5.29h46.66v201.6h-46.66V5.29z"/>
	<path class="st0" d="M502.38,206.89L502.1,85.93l-59.33,99.65h-21.02l-59.04-97.05v118.37h-43.78V5.29h38.59l75.45,125.28
		l74.3-125.28h38.3l0.58,201.6H502.38z"/>
	<path class="st0" d="M578.13,187.01l15.84-35.13c16.99,12.38,42.33,21.02,66.53,21.02c27.65,0,38.88-9.22,38.88-21.6
		c0-37.73-117.21-11.81-117.21-86.69c0-34.27,27.65-62.78,84.96-62.78c25.34,0,51.26,6.05,69.98,17.86l-14.4,35.42
		c-18.72-10.66-38.01-15.84-55.87-15.84c-27.65,0-38.3,10.37-38.3,23.04c0,37.15,117.21,11.52,117.21,85.53
		c0,33.7-27.94,62.5-85.53,62.5C628.24,210.34,595.98,200.84,578.13,187.01z"/>
</g>
<g>
	<path class="st0" d="M23.9,247.71c0,3.72-2.82,5.86-8.31,5.86H5.24v-21.7h9.74c4.99,0,7.78,2.11,7.78,5.61c0,2.36-1.21,4-2.91,4.84
		C22.29,243,23.9,244.83,23.9,247.71z M8.34,234.38v6.95h6.36c3.16,0,4.96-1.18,4.96-3.47c0-2.29-1.8-3.47-4.96-3.47H8.34z
		 M20.77,247.47c0-2.51-1.86-3.63-5.3-3.63H8.34v7.22h7.13C18.91,251.06,20.77,249.98,20.77,247.47z"/>
	<path class="st0" d="M28.7,231.87h3.1v21.7h-3.1V231.87z"/>
	<path class="st0" d="M38.31,231.87h9.15c6.98,0,11.72,4.4,11.72,10.85s-4.74,10.85-11.72,10.85h-9.15V231.87z M47.28,250.88
		c5.36,0,8.81-3.29,8.81-8.16c0-4.87-3.44-8.15-8.81-8.15h-5.86v16.31H47.28z"/>
	<path class="st0" d="M63.92,231.87h9.15c6.98,0,11.72,4.4,11.72,10.85s-4.74,10.85-11.72,10.85h-9.15V231.87z M72.88,250.88
		c5.36,0,8.8-3.29,8.8-8.16c0-4.87-3.44-8.15-8.8-8.15h-5.86v16.31H72.88z"/>
	<path class="st0" d="M89.53,231.87h3.1v21.7h-3.1V231.87z"/>
	<path class="st0" d="M117.8,231.87v21.7h-2.54l-13.02-16.18v16.18h-3.1v-21.7h2.54l13.02,16.19v-16.19H117.8z"/>
	<path class="st0" d="M139.35,242.6h2.98v8.46c-2.17,1.83-5.18,2.76-8.22,2.76c-6.67,0-11.57-4.68-11.57-11.1
		c0-6.42,4.9-11.1,11.63-11.1c3.44,0,6.36,1.15,8.34,3.35l-1.92,1.92c-1.8-1.74-3.85-2.51-6.29-2.51c-5.02,0-8.65,3.5-8.65,8.34
		c0,4.78,3.63,8.34,8.62,8.34c1.83,0,3.54-0.4,5.09-1.4V242.6z"/>
	<path class="st0" d="M156.58,231.87h3.1v21.7h-3.1V231.87z"/>
	<path class="st0" d="M184.85,231.87v21.7h-2.54l-13.02-16.18v16.18h-3.1v-21.7h2.54l13.02,16.19v-16.19H184.85z"/>
	<path class="st0" d="M194.46,234.57v7.57h10.88v2.67h-10.88v8.77h-3.1v-21.7h15.32v2.7H194.46z"/>
	<path class="st0" d="M209.03,242.72c0-6.36,4.9-11.1,11.57-11.1c6.6,0,11.5,4.71,11.5,11.1c0,6.39-4.9,11.1-11.5,11.1
		C213.93,253.82,209.03,249.08,209.03,242.72z M229,242.72c0-4.81-3.6-8.34-8.4-8.34c-4.87,0-8.46,3.53-8.46,8.34
		c0,4.81,3.6,8.34,8.46,8.34C225.4,251.06,229,247.53,229,242.72z"/>
	<path class="st0" d="M251.35,253.57l-4.68-6.67c-0.43,0.03-0.9,0.06-1.37,0.06h-5.36v6.6h-3.1v-21.7h8.46
		c5.64,0,9.05,2.85,9.05,7.57c0,3.35-1.74,5.77-4.78,6.85l5.15,7.29H251.35z M251.25,239.44c0-3.1-2.08-4.87-6.05-4.87h-5.27v9.77
		h5.27C249.18,244.34,251.25,242.54,251.25,239.44z"/>
	<path class="st0" d="M279.5,253.57l-0.03-15.81l-7.84,13.18h-1.43l-7.84-13.08v15.72h-2.98v-21.7h2.54l9.05,15.25l8.93-15.25h2.54
		l0.03,21.7H279.5z"/>
	<path class="st0" d="M302.81,248.15h-11.53l-2.39,5.43h-3.19l9.83-21.7h3.07l9.86,21.7h-3.26L302.81,248.15z M301.72,245.67
		l-4.68-10.64l-4.68,10.64H301.72z"/>
	<path class="st0" d="M314.9,234.57h-7.44v-2.7h17.95v2.7h-7.44v19.01h-3.07V234.57z"/>
	<path class="st0" d="M328.78,231.87h3.1v21.7h-3.1V231.87z"/>
	<path class="st0" d="M336.62,242.72c0-6.36,4.9-11.1,11.57-11.1c6.6,0,11.5,4.71,11.5,11.1c0,6.39-4.9,11.1-11.5,11.1
		C341.52,253.82,336.62,249.08,336.62,242.72z M356.59,242.72c0-4.81-3.6-8.34-8.4-8.34c-4.87,0-8.46,3.53-8.46,8.34
		c0,4.81,3.6,8.34,8.46,8.34C353,251.06,356.59,247.53,356.59,242.72z"/>
	<path class="st0" d="M383.1,231.87v21.7h-2.54l-13.02-16.18v16.18h-3.1v-21.7h2.54L380,248.06v-16.19H383.1z"/>
	<path class="st0" d="M418.06,253.57l-0.03-15.81l-7.84,13.18h-1.43l-7.84-13.08v15.72h-2.98v-21.7h2.54l9.05,15.25l8.93-15.25h2.54
		l0.03,21.7H418.06z"/>
	<path class="st0" d="M441.38,248.15h-11.53l-2.39,5.43h-3.19l9.83-21.7h3.07l9.86,21.7h-3.26L441.38,248.15z M440.29,245.67
		l-4.68-10.64l-4.68,10.64H440.29z"/>
	<path class="st0" d="M468.9,231.87v21.7h-2.54l-13.02-16.18v16.18h-3.1v-21.7h2.54l13.02,16.19v-16.19H468.9z"/>
	<path class="st0" d="M489.24,248.15h-11.53l-2.39,5.43h-3.19l9.83-21.7h3.07l9.86,21.7h-3.26L489.24,248.15z M488.15,245.67
		l-4.68-10.64l-4.68,10.64H488.15z"/>
	<path class="st0" d="M512.83,242.6h2.98v8.46c-2.17,1.83-5.18,2.76-8.22,2.76c-6.67,0-11.57-4.68-11.57-11.1
		c0-6.42,4.9-11.1,11.63-11.1c3.44,0,6.36,1.15,8.34,3.35l-1.92,1.92c-1.8-1.74-3.84-2.51-6.29-2.51c-5.02,0-8.65,3.5-8.65,8.34
		c0,4.78,3.63,8.34,8.62,8.34c1.83,0,3.53-0.4,5.08-1.4V242.6z"/>
	<path class="st0" d="M537.48,250.88v2.7h-15.75v-21.7h15.32v2.7h-12.22v6.67h10.88v2.64h-10.88v7.01H537.48z"/>
	<path class="st0" d="M562.62,253.57l-0.03-15.81l-7.84,13.18h-1.43l-7.84-13.08v15.72h-2.98v-21.7h2.54l9.05,15.25l8.93-15.25h2.54
		l0.03,21.7H562.62z"/>
	<path class="st0" d="M587.85,250.88v2.7H572.1v-21.7h15.32v2.7H575.2v6.67h10.88v2.64H575.2v7.01H587.85z"/>
	<path class="st0" d="M611.53,231.87v21.7h-2.54l-13.02-16.18v16.18h-3.1v-21.7h2.54l13.02,16.19v-16.19H611.53z"/>
	<path class="st0" d="M622.35,234.57h-7.44v-2.7h17.95v2.7h-7.44v19.01h-3.07V234.57z"/>
	<path class="st0" d="M642.59,251.09l1.15-2.42c1.61,1.46,4.37,2.51,7.16,2.51c3.75,0,5.36-1.46,5.36-3.35
		c0-5.3-13.15-1.95-13.15-10.01c0-3.35,2.6-6.2,8.31-6.2c2.54,0,5.18,0.68,6.98,1.92l-1.02,2.48c-1.89-1.21-4.03-1.77-5.95-1.77
		c-3.69,0-5.27,1.55-5.27,3.44c0,5.3,13.15,1.98,13.15,9.95c0,3.32-2.67,6.17-8.4,6.17C647.58,253.82,644.33,252.71,642.59,251.09z"
		/>
	<path class="st0" d="M671.67,246.07v7.5h-3.07v-7.57l-8.62-14.14h3.32l6.95,11.44l6.98-11.44h3.07L671.67,246.07z"/>
	<path class="st0" d="M687.48,234.57h-7.44v-2.7h17.95v2.7h-7.44v19.01h-3.07V234.57z"/>
	<path class="st0" d="M717.12,250.88v2.7h-15.75v-21.7h15.32v2.7h-12.22v6.67h10.88v2.64h-10.88v7.01H717.12z"/>
	<path class="st0" d="M742.26,253.57l-0.03-15.81l-7.84,13.18h-1.43l-7.84-13.08v15.72h-2.98v-21.7h2.54l9.05,15.25l8.93-15.25h2.54
		l0.03,21.7H742.26z"/>
</g>
</svg>
